<?xml version="1.0" encoding="UTF-8" standalone="no"?>
<!--
    Licensed to the Apache Software Foundation (ASF) under one
    or more contributor license agreements.  See the NOTICE file
    distributed with this work for additional information
    regarding copyright ownership.  The ASF licenses this file
    to you under the Apache License, Version 2.0 (the
    "License"); you may not use this file except in compliance
    with the License.  You may obtain a copy of the License at

    http://www.apache.org/licenses/LICENSE-2.0

    Unless required by applicable law or agreed to in writing,
    software distributed under the License is distributed on an
    "AS IS" BASIS, WITHOUT WARRANTIES OR CONDITIONS OF ANY
    KIND, either express or implied.  See the License for the
    specific language governing permissions and limitations
    under the License.
-->

<svg
   width="307mm"
   height="72mm"
   viewBox="0 0 870.23626 204.09443"
   version="1.1"
   id="svg49"
   sodipodi:docname="banner.svg"
   inkscape:version="1.1 (c68e22c387, 2021-05-23)"
   xmlns:inkscape="http://www.inkscape.org/namespaces/inkscape"
   xmlns:sodipodi="http://sodipodi.sourceforge.net/DTD/sodipodi-0.dtd"
   xmlns="http://www.w3.org/2000/svg"
   xmlns:svg="http://www.w3.org/2000/svg">
  <defs
     id="defs53" />
  <sodipodi:namedview
     id="namedview51"
     pagecolor="#ffffff"
     bordercolor="#666666"
     borderopacity="1.0"
     inkscape:pageshadow="2"
     inkscape:pageopacity="0.0"
     inkscape:pagecheckerboard="0"
     inkscape:document-units="pt"
     showgrid="false"
     units="mm"
     width="298mm"
     inkscape:zoom="0.516"
     inkscape:cx="545.54264"
     inkscape:cy="666.66667"
     inkscape:window-width="1500"
     inkscape:window-height="938"
     inkscape:window-x="-6"
     inkscape:window-y="-6"
     inkscape:window-maximized="1"
     inkscape:current-layer="surface6" />
  <g
     id="surface6">
    <path
       style="fill:#54abee;fill-opacity:1;fill-rule:nonzero;stroke:none"
       d="m 99.639893,100.00945 -30.5039,21.85937 14.5664,14.87891 30.792967,-24.02734 -14.855467,-12.71094 m 80.390627,-57.617192 -74.82031,53.6211 14.88281,12.339842 74.47656,-58.097662 -14.53906,-7.86328 m -40.83594,5.17969 -87.449217,56.546872 12.83594,13.10938 87.996087,-61.402342 -13.38281,-8.25391 m 22.96094,-14.84375 -18.91016,12.22266 13.3711,8.05468 18.79297,-13.11328 -13.25391,-7.16406 m -11.1875,59.41406 -62.082027,49.894532 16.679687,17.02344 62.12109,-54.94141 -16.71875,-11.976562 m 48.6875,-39.13672 -43.99609,35.36719 16.67578,11.636722 43.34375,-38.339842 -16.02344,-8.66407 m -103.289057,0 -60.04688,35.36719 11.40235,11.640632 L 108.4563,61.669608 96.366463,53.005538 M 221.29224,64.712568 111.52271,165.15007 130.79224,184.82195 239.03833,74.310228 221.29224,64.712568 m -75.48438,-40.82812 -44.77343,26.37109 12.11718,8.45313 44.78516,-28.26563 -12.12891,-6.55859 m -15.01562,-8.125 11.14453,6.03125 -109.203122,62.91797 -10.1875,-10.39844 z m 0,0"
       id="path32" />
    <path
       style="fill:#54abee;fill-opacity:1;fill-rule:nonzero;stroke:none"
       d="m 314.55396,90.989918 c 12.67968,0 19.78125,-7.94922 19.78125,-18.9375 v -0.16797 c 0,-12.34375 -7.10157,-19.10938 -20.1211,-19.10938 h -13.35547 v 38.21485 z m -38.21485,-60.36328 h 39.39844 c 26.54297,0 43.28516,15.38672 43.28516,40.57812 v 0.33985 c 0,27.22265 -19.44532,40.917962 -44.30078,41.425782 h -13.86329 v 36.01172 h -24.51953 z m 0,0"
       id="path34" />
    <path
       style="fill:#54abee;fill-opacity:1;fill-rule:nonzero;stroke:none"
       d="m 417.52271,119.22429 v -7.60547 c -3.55078,-1.6914 -8.45313,-2.875 -13.35547,-2.875 -8.79297,0 -14.3711,4.39454 -14.3711,12.67969 v 0.33594 c 0,7.44141 4.73438,11.16016 11.66407,11.33203 9.30078,0.16797 16.0625,-5.58203 16.0625,-13.86719 m -50.89453,3.89063 v -1.01563 c 0,-19.94922 13.01953,-28.910152 31.62109,-28.910152 7.60937,0 13.35547,1.51953 18.93359,3.71875 v -2.70703 c 0,-10.48438 -6.2539,-15.89454 -17.07422,-15.89454 -8.45312,0 -15.21875,2.70704 -20.79687,5.07422 l -6.59766,-18.76953 c 8.79297,-4.39453 17.92578,-7.26953 30.94532,-7.26953 12.34375,0 21.64062,3.38281 27.55859,9.30078 6.25781,6.25391 9.30078,15.72266 9.30078,27.39063 v 54.953122 h -23.50391 v -9.80859 c -5.41015,7.10156 -12.84765,11.49609 -23.5,11.49609 -14.88281,0 -26.88671,-9.97265 -26.88671,-27.55859"
       id="path36" />
    <path
       style="fill:#54abee;fill-opacity:1;fill-rule:nonzero;stroke:none"
       d="m 458.94458,58.357108 h 24.01172 v 16.0625 c 4.39453,-10.99219 11.66406,-18.26172 24.51563,-17.58594 v 26.03906 h -1.01563 c -14.71094,0 -23.5,9.12891 -23.5,28.066412 v 38.04687 h -24.01172 z m 0,0"
       id="path38" />
    <path
       style="fill:#54abee;fill-opacity:1;fill-rule:nonzero;stroke:none"
       d="m 575.44068,104.51336 v -1.6875 c 0,-15.386722 -7.77735,-25.195322 -17.75391,-25.195322 -9.97656,0 -17.58594,9.8086 -17.58594,25.195322 v 1.6875 c 0,15.39062 7.60938,25.19531 17.58594,25.19531 9.97656,0 17.75391,-9.80469 17.75391,-25.19531 m -0.33985,31.95703 c -5.23828,7.60937 -12.51172,14.20312 -24.51562,14.20312 -17.92188,0 -34.49219,-14.71094 -34.49219,-45.65234 v -2.70313 c 0,-30.945312 16.40234,-45.652342 34.49219,-45.652342 12.17187,0 19.27734,6.59375 24.51562,13.35547 v -11.66406 h 24.01172 V 174.51336 h -24.01172 z m 0,0"
       id="path40" />
    <path
       style="fill:#54abee;fill-opacity:1;fill-rule:nonzero;stroke:none"
       d="M 617.87818,120.07195 V 58.357108 h 23.83984 v 54.613282 c 0,10.65234 4.73437,16.0625 12.84766,16.0625 8.11718,0 13.1914,-5.41016 13.1914,-16.0625 V 58.357108 h 24.00781 v 90.625002 h -24.00781 v -12.17188 c -5.07422,7.26953 -11.83594,13.86328 -23.16406,13.86328 -17.07813,0 -26.71484,-11.83203 -26.71484,-30.60156"
       id="path42" />
    <path
       style="fill:#54abee;fill-opacity:1;fill-rule:nonzero;stroke:none"
       d="m 762.2688,96.739918 c -1.01562,-12.51563 -6.42578,-20.29297 -15.38672,-20.29297 -8.79297,0 -14.53906,7.44141 -15.89062,20.29297 z m -54.94922,7.945312 v -1.52344 c 0,-26.882812 16.73828,-46.496092 39.5625,-46.496092 25.8711,0 38.55078,21.13672 38.55078,48.187502 0,1.35156 0,4.22656 -0.16797,7.77734 h -54.10546 c 2.02734,12.00391 9.46875,18.26172 19.61328,18.26172 7.4375,0 13.1875,-3.38281 18.9375,-8.96094 l 12.33984,14.53907 c -8.28516,9.13281 -18.76562,14.54297 -32.29297,14.54297 -24.00781,0 -42.4375,-18.08985 -42.4375,-46.32813"
       id="path44" />
    <path
       style="fill:#54abee;fill-opacity:1;fill-rule:nonzero;stroke:none"
       d="M 804.7063,126.32586 V 78.646168 h -9.12891 v -20.28906 h 9.12891 v -23.16797 h 24.01172 v 23.16797 h 17.92187 v 20.28906 h -17.92187 v 42.777342 c 0,5.24219 2.36719,7.77735 7.4375,7.77735 3.71875,0 7.26953,-1.01563 10.31641,-2.53516 v 19.10547 c -4.73829,2.70703 -10.48438,4.73437 -17.75391,4.73437 -13.86719,0 -24.01172,-5.41015 -24.01172,-24.17968"
       id="path46" />
  </g>
</svg>
